<svg width="393" height="131" viewBox="0 0 393 131" fill="none" xmlns="http://www.w3.org/2000/svg">
<path d="M2 99.5248C2 78.21 22.8833 63.5213 36.9306 75.6487C27.4392 57.4576 40.3265 44.1974 47.561 38.8873C60.4693 29.4126 76.774 26.9056 90.0826 34.3394C103.391 41.7733 104.889 57.0785 100.713 68.448C109.445 54.8046 124.955 51.1492 135.642 57.0785C143.376 61.3699 146.776 71.3671 147.031 80.1966C154.243 80.1966 160.319 83.2522 162.597 84.7444C174.746 92.7031 168.672 102.519 226 90.4292C172.089 101.799 177.024 113.926 160.319 116.579C143.614 119.232 117.798 111.171 105.269 113.926C96.1572 115.93 89.9817 124.426 78.6929 126.812C62.4492 130.245 50.2229 130.981 41.4864 118.853C23.6427 126.812 2 116.579 2 99.5248Z" fill="#6F468E"/>
<path d="M41.4864 118.853C23.6427 126.812 2 116.579 2 99.5248C2 78.21 22.8833 63.5213 36.9306 75.6487C27.4392 57.4576 40.3265 44.1974 47.561 38.8873C60.4693 29.4126 76.774 26.9056 90.0826 34.3394C103.391 41.7733 104.889 57.0785 100.713 68.448C109.445 54.8046 124.955 51.1492 135.642 57.0785C143.376 61.3699 146.776 71.3671 147.031 80.1966M41.4864 118.853C50.2229 130.981 62.4492 130.245 78.6929 126.812C89.9817 124.426 96.1572 115.93 105.269 113.926C117.798 111.171 143.614 119.232 160.319 116.579C177.024 113.926 172.089 101.799 226 90.4292C168.672 102.519 174.746 92.7031 162.597 84.7444C160.319 83.2522 154.243 80.1966 147.031 80.1966M41.4864 118.853C36.3595 111.736 36.9306 104.831 41.4864 99.5248C46.358 93.8514 52.4966 94.977 60.0898 96.8719C50.2187 91.9451 51.5681 81.6999 56.6728 75.6487C62.7474 68.448 72.6163 64.3574 84.7675 68.448C96.9187 72.5387 101.335 84.7444 100.713 90.4292C100.091 96.114 95.4001 101.799 84.7675 101.799C74.1349 101.799 69.579 87.3973 80.9709 87.3973M147.031 80.1966C144.374 88.9132 134.882 93.4611 124.252 90.4292C113.621 87.3973 114.381 69.2061 127.289 72.9959" stroke="#A270CA" stroke-width="3" stroke-linecap="round" stroke-linejoin="round"/>
<path d="M267.297 27.032C278.341 26.495 289.646 32.7357 288.349 43.7647C290.491 37.8851 302.248 34.4587 310.337 36.9955C318.223 39.4687 323.612 45.1681 321.34 53.0654C318.751 62.0645 309.83 68.1541 317.133 73.9563C333.313 86.8122 343.992 36.9955 377 59.4934C343.992 53.0654 348.199 68.8139 343.992 77.1703C339.114 86.8601 334.375 94.4185 323.605 96.1328C315.274 97.4588 310.337 96.1328 302.894 90.0262C300.952 96.1328 295.015 99.7804 288.008 99.9896C281.395 100.187 276.553 97.5735 273.122 91.9546C263.738 99.9896 254.452 99.2524 247.881 91.9546C241.31 84.6568 242.703 71.3851 254.029 66.2427C237.202 63.3501 238.496 50.8156 242.703 43.1021C247.496 34.3138 257.246 27.5209 267.297 27.032Z" fill="#6F468E"/>
<path d="M288.008 45.6733H286.508L289.467 46.0212L288.008 45.6733ZM267.297 27.032L267.224 25.5338L267.297 27.032ZM242.703 43.1021L241.386 42.3839L242.703 43.1021ZM254.029 66.2427L254.65 67.6085L259.093 65.5911L254.284 64.7644L254.029 66.2427ZM247.881 91.9546L246.766 92.9583H246.766L247.881 91.9546ZM273.122 91.9546L272.666 90.5258L272.377 90.6181L272.147 90.8152L273.122 91.9546ZM288.008 99.9896L287.963 98.4903L288.008 99.9896ZM302.894 90.0262L303.845 88.8666L302.135 87.4632L301.465 89.5717L302.894 90.0262ZM323.605 96.1328L323.369 94.6515L323.605 96.1328ZM343.992 77.1703L342.652 76.4958L343.992 77.1703ZM377 59.4934L376.713 60.9657L377.845 58.2539L377 59.4934ZM317.133 73.9563L316.2 75.1307L317.133 73.9563ZM321.34 53.0654L319.898 52.6507L321.34 53.0654ZM310.337 36.9955L309.888 38.4268L310.337 36.9955ZM282.507 77.1703L283.984 76.9079L282.507 77.1703ZM267.297 68.8139L267.694 70.2606L267.297 68.8139ZM289.467 46.0212C289.636 45.3153 289.759 44.6213 289.839 43.9399L286.86 43.5895C286.794 44.1504 286.691 44.729 286.549 45.3253L289.467 46.0212ZM289.839 43.9399C290.562 37.7909 287.732 32.9711 283.319 29.838C278.955 26.7397 273.022 25.2519 267.224 25.5338L267.37 28.5303C272.616 28.2752 277.857 29.6391 281.583 32.2842C285.259 34.8944 287.434 38.7095 286.86 43.5895L289.839 43.9399ZM267.224 25.5338C256.59 26.051 246.399 33.1928 241.386 42.3839L244.02 43.8203C248.593 35.4348 257.902 28.9907 267.37 28.5303L267.224 25.5338ZM241.386 42.3839C239.186 46.4175 237.632 51.8998 239.034 56.8863C240.487 62.0537 244.964 66.2064 253.775 67.721L254.284 64.7644C246.267 63.3864 242.977 59.8256 241.922 56.0742C240.817 52.142 242.013 47.5001 244.02 43.8203L241.386 42.3839ZM253.409 64.8769C241.114 70.4591 239.55 84.9438 246.766 92.9583L248.996 90.951C243.07 84.3699 244.292 72.3111 254.65 67.6085L253.409 64.8769ZM246.766 92.9583C250.277 96.8581 254.614 99.1016 259.414 99.2041C264.196 99.3062 269.209 97.2801 274.098 93.0941L272.147 90.8152C267.651 94.6642 263.329 96.287 259.478 96.2048C255.647 96.123 252.055 94.349 248.996 90.951L246.766 92.9583ZM271.842 92.7363C273.67 95.73 275.92 97.9945 278.659 99.4733C281.398 100.952 284.533 101.594 288.053 101.489L287.963 98.4903C284.87 98.5826 282.277 98.0169 280.084 96.8333C277.892 95.6499 276.005 93.7982 274.402 91.173L271.842 92.7363ZM288.053 101.489C295.523 101.266 302.141 97.3442 304.324 90.4808L301.465 89.5717C299.764 94.9214 294.507 98.2949 287.963 98.4903L288.053 101.489ZM301.943 91.1859C305.74 94.3016 309.018 96.2986 312.499 97.3075C315.994 98.3202 319.553 98.2967 323.841 97.6142L323.369 94.6515C319.326 95.295 316.251 95.2714 313.334 94.426C310.404 93.5768 307.491 91.8575 303.845 88.8666L301.943 91.1859ZM323.841 97.6142C335.417 95.7717 340.451 87.5394 345.332 77.8448L342.652 76.4958C337.777 86.1809 333.334 93.0653 323.369 94.6515L323.841 97.6142ZM345.332 77.8448C346.471 75.5827 347.057 72.78 347.727 70.3827C348.429 67.8707 349.259 65.5923 350.832 63.7668C353.861 60.2519 360.292 57.7677 376.713 60.9657L377.287 58.021C360.701 54.791 352.731 56.9671 348.559 61.8086C346.532 64.1613 345.562 66.9851 344.838 69.5753C344.082 72.2802 343.617 74.5797 342.652 76.4958L345.332 77.8448ZM377.845 58.2539C369.326 52.4477 362.053 51.1921 355.672 52.6053C349.375 53.9996 344.197 57.9443 339.746 62.0003C337.532 64.0177 335.398 66.1589 333.449 68.01C331.462 69.8977 329.623 71.5273 327.843 72.7056C326.064 73.8836 324.456 74.5342 322.928 74.6047C321.445 74.6731 319.855 74.2034 318.066 72.7818L316.2 75.1307C318.456 76.9231 320.739 77.7089 323.066 77.6015C325.348 77.4963 327.486 76.5398 329.499 75.207C331.512 73.8743 333.511 72.0891 335.515 70.1853C337.558 68.2449 339.571 66.218 341.766 64.2179C346.133 60.239 350.825 56.7513 356.32 55.5343C361.731 54.3361 368.17 55.2901 376.155 60.7329L377.845 58.2539ZM318.066 72.7818C316.472 71.5155 315.939 70.3885 315.838 69.363C315.729 68.2558 316.092 66.9776 316.876 65.3659C317.672 63.7297 318.728 62.0728 319.87 60.0467C320.975 58.0862 322.085 55.8982 322.781 53.4801L319.898 52.6507C319.299 54.732 318.324 56.6799 317.256 58.5736C316.226 60.4016 315.023 62.3171 314.178 64.0534C313.321 65.8143 312.661 67.7088 312.852 69.6565C313.052 71.6859 314.142 73.4959 316.2 75.1307L318.066 72.7818ZM322.781 53.4801C324.047 49.0811 323.18 45.1938 320.846 42.0941C318.553 39.0489 314.925 36.8625 310.786 35.5642L309.888 38.4268C313.634 39.6017 316.644 41.5016 318.449 43.8987C320.213 46.2414 320.904 49.1524 319.898 52.6507L322.781 53.4801ZM310.786 35.5642C306.397 34.1879 301.122 34.4457 296.679 35.7881C292.324 37.1041 288.259 39.6299 286.94 43.2513L289.759 44.2781C290.581 42.0199 293.466 39.8927 297.547 38.6599C301.54 37.4534 306.188 37.2663 309.888 38.4268L310.786 35.5642ZM286.94 43.2513C286.66 44.0189 286.508 44.8299 286.508 45.6733H289.508C289.508 45.1966 289.593 44.7325 289.759 44.2781L286.94 43.2513ZM273.579 93.3835C280.197 91.2683 285.369 84.7018 283.984 76.9079L281.03 77.4327C282.106 83.4913 278.115 88.7842 272.666 90.5258L273.579 93.3835ZM283.984 76.9079C283.147 72.1964 280.362 69.3271 276.997 67.9092C273.709 66.5232 269.926 66.5384 266.901 67.3672L267.694 70.2606C270.188 69.5773 273.267 69.5926 275.832 70.6737C278.322 71.7229 280.382 73.7878 281.03 77.4327L283.984 76.9079ZM266.901 67.3672C261.439 68.8636 259.103 73.5814 259.325 77.5632C259.435 79.5424 260.186 81.497 261.676 82.7748C263.23 84.1072 265.364 84.5116 267.757 83.7404L266.837 80.885C265.291 81.3833 264.281 81.0565 263.629 80.4976C262.914 79.8842 262.398 78.7876 262.32 77.3961C262.167 74.6365 263.771 71.3354 267.694 70.2606L266.901 67.3672Z" fill="#A270CA"/>
<path d="M162.325 19.5977C168.483 11.7193 176.18 8.48614 186.901 11.9886C188.75 3.63685 201.456 -0.535832 208.878 3.63683C216.301 7.80948 217.187 15.7606 217.187 22.5868C222.815 3.63682 240.799 11.5211 248.009 18.1853C255.218 24.8495 260.847 36.1649 278 40.0081C253.288 36.9992 245.199 41.2806 240.1 43.9797L239.968 44.0493C234.876 46.7435 224.155 66.1415 208.878 59.4061C197.353 73.9546 170.82 61.8308 176.18 48.0906C158.223 46.2046 155.745 28.0169 162.325 19.5977Z" fill="#6F468E"/>
<path d="M186.901 11.9886C195.209 14.7029 194.951 23.7994 193.869 27.0703C192.787 30.3413 190.355 34.97 183.847 36.251C177.34 37.5321 172.518 33.2833 172.518 29.0132C172.518 22.3946 181.861 19.5977 181.861 27.0703M186.901 11.9886C176.18 8.48614 168.483 11.7193 162.325 19.5977C155.745 28.0169 158.223 46.2046 176.18 48.0906C170.82 61.8308 197.353 73.9546 208.878 59.4061M186.901 11.9886C188.75 3.63685 201.456 -0.535832 208.878 3.63683C216.301 7.80948 217.187 15.7606 217.187 22.5868C222.815 3.63682 240.799 11.5211 248.009 18.1853C255.218 24.8495 260.847 36.1649 278 40.0081C253.074 36.9732 245.061 41.3551 239.968 44.0493C234.876 46.7435 224.155 66.1415 208.878 59.4061M208.878 59.4061C208.878 59.4061 199.418 54.0377 198.425 48.0906C197.293 41.3077 200.371 34.4273 207.002 32.7338C213.036 31.1929 221.207 32.7338 221.207 40.0081C221.207 44.0493 214.507 50.2459 208.878 44.0493" stroke="#A270CA" stroke-width="3"/>
</svg>
