<svg width="505" height="57" viewBox="0 0 505 57" fill="none" xmlns="http://www.w3.org/2000/svg">
<path fill-rule="evenodd" clip-rule="evenodd" d="M354.048 18.1976L354.047 18.1979C348.223 19.171 336.15 21.1887 333.396 20.4377C332.543 21.9462 332.879 23.4611 333.161 24.7304C333.284 25.2816 333.396 25.7866 333.396 26.2246C336.888 26.3764 341.017 25.1742 345.49 23.8716C349.543 22.6915 353.879 21.429 358.28 21.0163C356.833 24.1992 328.356 39.6645 327.609 39.5346C327.151 39.455 326.755 39.1979 326.383 38.9572C325.812 38.5869 325.3 38.2551 324.716 38.6665C322.979 41.8494 324.137 46.4789 327.609 44.1642C332.526 42.4739 340.871 36.9484 348.135 32.1378C354.551 27.8898 360.124 24.1992 361.752 24.1992C360.595 25.6459 353.65 33.6886 352.493 32.8796C351.625 35.7731 353.072 36.9305 354.229 36.9305C355.249 37.2706 355.648 36.8999 356.155 36.4277C356.943 35.6948 357.994 34.7173 362.041 35.7731C364.067 37.7985 360.566 41.4377 358.859 43.0068C358.729 43.1259 358.586 43.2724 358.423 43.4393C357.397 44.4885 355.579 46.3485 351.336 47.347C348.552 48.3412 345.905 46.6025 343.958 45.3236C343.071 44.7415 342.33 44.2547 341.787 44.1642C340.636 45.2489 344.681 53.4233 347.863 55.1594C351.336 55.1594 356.414 53.6247 359.437 51.6872C362.62 49.0831 368.696 42.4281 368.986 36.9305C368.337 33.4704 366.395 32.9196 364.489 32.3789C363.845 32.1962 363.205 32.0146 362.62 31.7222C363.778 29.6968 364.782 28.906 366.092 28.5394C366.988 28.2887 366.977 28.4555 366.957 28.7444C366.937 29.0395 366.907 29.462 367.828 29.6968C368.055 29.7173 368.282 29.7387 368.509 29.7602L368.512 29.7605C371.488 30.041 374.547 30.3294 376.509 28.8287C377.855 27.7989 378.195 27.0345 377.956 25.3566C376.798 24.1992 373.793 23.961 372.458 24.1992C373.037 25.3566 370.433 25.3566 368.986 25.3566C368.678 24.7418 369.173 24.4201 369.669 24.0979C370.107 23.8135 370.545 23.5288 370.433 23.0418C369.928 21.5294 368.086 21.5538 366.784 21.571C365.844 21.5835 365.185 21.5922 365.514 21.0163C365.778 20.5537 366.166 20.418 366.601 20.2659C366.991 20.1296 367.418 19.98 367.828 19.5696C371.417 19.1104 374.929 19.2031 377.844 19.2801C380.57 19.3521 382.774 19.4103 384.032 18.9909C385.189 18.6051 385.881 17.8095 385.189 16.3868C384.66 15.2983 382.286 14.9176 380.125 14.571C378.756 14.3515 377.473 14.1458 376.798 13.7827C376.798 14.94 375.58 15.9115 374.773 14.94C375.312 14.4012 376.321 13.6167 377.486 12.7118C380.7 10.2149 385.094 6.80124 384.032 5.10223C383.79 4.99864 383.553 4.89093 383.316 4.78353L383.315 4.78341C381.567 3.99084 379.856 3.21496 376.798 4.23418C376.383 4.77879 376.147 5.52788 375.905 6.29851C375.409 7.87304 374.884 9.53752 372.747 9.73179C372.747 9.73179 372.458 9.15309 373.326 8.28506C373.045 7.66717 372.268 7.82721 371.446 7.99641C370.763 8.13707 370.049 8.28406 369.564 7.99569C369.004 7.29536 369.464 6.11787 369.955 4.86077L369.955 4.86061C370.478 3.52086 371.036 2.0907 370.433 1.05135C368.407 -0.395377 364.935 -0.395391 361.174 1.3407C361.583 2.02352 362.145 2.15757 362.644 2.2765C363.202 2.40955 363.681 2.52368 363.778 3.36615C363.992 5.2345 363.778 6.54895 362.62 8.86375C359.78 10.2001 358.001 9.22196 356.671 8.49036C355.697 7.95472 354.963 7.55124 354.229 8.28506C353.612 11.0233 359.437 14.3613 359.437 14.3613L356.254 17.8335C355.71 17.9199 354.956 18.0459 354.05 18.1973L354.048 18.1976ZM162.97 2.20875C163.838 1.34071 167.021 0.00128368 172.519 0.472652C174.007 0.600223 176.996 2.52669 176.57 4.23417C176.28 5.39156 175.702 7.417 175.412 8.28504C174.814 10.0811 171.49 9.09426 169.366 8.46369L169.366 8.46356C169.149 8.39923 168.945 8.33861 168.757 8.28504C168.639 8.25119 168.511 8.21512 168.375 8.17695C166.854 7.74899 164.393 7.05656 164.128 6.2596C164.321 5.87381 164.771 5.48803 165.221 5.10224C165.446 4.90934 165.671 4.71643 165.864 4.52352C166.442 3.94482 164.417 2.4981 162.97 2.20875ZM113.202 0.761999C108.284 0.472649 94.6842 1.91939 91.212 2.78743C91.5772 3.33527 92.4494 3.81178 93.3052 4.27927C93.8053 4.55252 94.2998 4.82268 94.6842 5.10221C95.7261 5.85999 97.2883 7.12765 97.2883 7.12765V11.4679L80.2168 14.072C80.2168 14.072 79.6381 9.73178 81.0848 8.57439C80.2455 8.23866 77.9722 8.67367 76.7446 10.3105C75.0085 12.6253 72.1151 17.8335 71.247 19.8589C70.379 21.8844 69.8003 25.0672 70.6683 27.382C72.3607 28.5102 73.8512 27.6713 75.2979 26.8033C77.5139 24.144 78.7116 21.3151 79.5409 19.3563L79.541 19.3561L79.5414 19.3552L79.5414 19.3551L79.5417 19.3545L79.542 19.3537C79.7951 18.756 80.0138 18.2394 80.2168 17.8335C81.0848 17.2548 84.557 16.6761 85.7144 16.6761C85.7144 18.889 84.5297 20.0864 83.3253 21.3039L83.3252 21.304C82.9548 21.6784 82.5825 22.0547 82.2422 22.4631C81.4623 23.399 81.523 25.7287 81.9529 26.8033C82.3486 27.7925 83.2456 27.3433 84.263 26.8339C84.7336 26.5982 85.23 26.3497 85.7144 26.2246C88.3185 24.4885 90.9227 21.0163 90.9227 21.0163L88.8972 21.595C88.8972 21.595 88.787 17.2824 89.4759 16.3868C90.9227 16.0974 94.6842 15.8081 95.2629 15.8081C94.9792 16.4699 94.5814 17.2149 94.1612 18.0019C93.2954 19.6232 92.3343 21.423 92.08 23.0418C91.8171 24.7162 92.1524 26.0799 93.2374 27.382C94.0422 28.3477 94.6259 27.7881 95.4325 27.0149C95.931 26.537 96.5147 25.9775 97.2883 25.6459C98.4457 23.9098 101.339 18.4122 101.918 14.3613C102.786 14.072 107.018 13.65 110.309 13.4933C110.723 13.4736 111.108 13.4535 111.474 13.4343L111.474 13.4343C113.606 13.323 115.073 13.2464 117.543 13.4933C118.7 13.7826 119.128 15.2539 118.989 15.8081C118.7 16.9655 116.218 18.1581 114.939 18.7016C113.835 19.1702 111.622 19.4761 109.735 19.737L109.735 19.737C109.434 19.7786 109.141 19.8191 108.862 19.8589C108.573 19.5696 108.862 18.7016 108.862 18.7016C108.862 18.7016 111.756 17.2548 109.441 15.8081C107.994 15.2294 104.865 14.5974 103.654 15.8081C103.075 16.3868 103.075 18.4122 103.075 18.4122C103.075 18.4122 102.497 21.595 104.233 23.3311C103.651 23.9855 102.294 24.5595 101.028 25.095L101.028 25.095C100.101 25.4867 99.2241 25.8578 98.735 26.2246C100.182 26.8033 105.39 26.2246 105.39 26.2246C105.39 26.2246 110.309 25.6459 111.756 24.1992C112.333 23.0439 111.502 22.273 110.625 21.4602C110.184 21.0516 109.731 20.6323 109.441 20.1483C109.895 20.2131 110.442 20.316 111.055 20.4314C113.178 20.8309 116.095 21.3798 118.7 21.0163C119.205 20.9458 119.688 20.8827 120.149 20.8224C122.437 20.5228 124.199 20.2921 125.644 19.5696C127.38 18.7016 127.449 17.3491 127.091 15.8081C126.573 13.5748 125.268 12.546 123.641 11.2632C123.263 10.9654 122.868 10.6539 122.462 10.3105C117.648 9.70873 111.304 10.2193 106.709 10.5893C104.675 10.753 102.983 10.8892 101.918 10.8892C101.287 10.0802 100.609 8.26976 100.226 7.24482L100.182 7.12765C101.425 6.81672 103.672 6.67285 106.112 6.51652C108.214 6.38189 110.46 6.23802 112.334 5.97026C112.723 5.64737 113.108 5.44321 113.471 5.25093C114.202 4.86426 114.841 4.52564 115.228 3.36613C115.427 1.80947 114.607 1.42476 113.62 0.962016C113.483 0.897946 113.343 0.832379 113.202 0.761999ZM31.8958 6.54895C32.7548 4.11492 32.2191 3.58496 31.8222 3.19245C31.5775 2.95039 31.3857 2.76061 31.6064 2.20874L32.4745 1.91939C32.4745 1.91939 34.1159 1.51791 35.0786 1.63004C35.1906 1.64308 35.3074 1.65446 35.4279 1.6662C36.2105 1.74243 37.1527 1.83419 37.9721 2.49809C38.9217 3.26756 39.9975 5.10222 39.9975 5.10222C40.22 5.97838 40.2868 6.8383 39.9975 7.12765C39.901 7.22409 39.7969 7.31461 39.6928 7.40513C39.4846 7.58617 39.2763 7.76721 39.1294 7.99569C36.5253 12.0466 33.9212 18.4122 33.3425 21.0163C33.2414 21.4711 37.3934 20.1483 37.3934 20.1483C37.3934 20.1483 40.3779 19.09 41.7336 18.4122C42.0075 18.2752 41.8976 17.9883 41.7648 17.6416C41.6171 17.2559 41.4411 16.7963 41.7336 16.3868L41.7645 16.3432C41.9617 16.064 42.3577 15.5036 43.1803 15.2294C45.4951 14.94 47.5205 15.2294 47.5205 15.2294C47.5205 15.2294 48.4676 15.4608 48.9673 15.8081C49.3609 16.0817 49.8353 16.6761 49.8353 16.6761C49.8353 16.6761 50.5376 17.8571 50.7034 18.7016C50.7147 18.7596 50.7261 18.8162 50.7371 18.8716L50.7376 18.874L50.7378 18.8748C50.8744 19.5574 50.9725 20.0477 50.7034 20.727C50.4952 21.2522 49.8353 21.8844 49.8353 21.8844C49.8353 21.8844 49.0193 22.8406 48.3886 23.3311C47.6695 23.8904 46.3631 24.4885 46.3631 24.4885L42.0229 26.5139L35.3679 29.6968L28.7129 33.1689C28.7129 33.1689 27.0198 36.3518 26.6875 37.5092C26.0229 39.8239 26.1088 42.4281 26.1088 42.4281C26.1088 42.4281 28.0656 42.6324 29.2916 42.4281C32.7638 41.8494 35.3679 39.8239 35.3679 39.8239C35.3679 39.8239 36.7275 38.9836 36.5253 38.3772C36.3911 37.9745 35.8707 38.0326 35.4149 38.0835C34.8884 38.1423 34.4481 38.1915 34.7892 37.5092C35.0786 36.9305 35.9466 36.6411 35.9466 36.6411C35.9466 36.6411 38.2614 36.0624 39.9975 36.3518C40.8089 36.487 44.627 37.7985 46.3631 39.8239C47.5062 41.1576 48.5285 44.5222 47.8099 47.6363C46.9418 51.3979 45.2057 51.6872 41.1549 51.1085C40.6516 50.9827 39.9284 50.759 39.2245 50.5414L39.2245 50.5414C38.3097 50.2585 37.4278 49.9858 37.104 49.9511C36.4299 49.8789 35.3679 49.9511 35.3679 49.9511C35.0473 49.9775 34.7733 50.0425 34.5132 50.1043C34.2175 50.1745 33.9397 50.2405 33.6318 50.2405C33.0532 50.2405 35.6573 47.9257 37.6827 46.1896C38.183 45.7608 39.259 44.514 39.4188 43.8748C39.7081 42.7174 38.5507 40.1133 37.3934 40.1133C36.5253 41.2707 33.856 43.1765 31.3171 44.7429C27.9585 46.8148 21.8518 48.3153 15.6923 49.3724C12.3204 49.9511 7.3012 49.6618 2.96098 49.3724C2.09486 49.3147 1.80358 49.0831 0.935537 47.6363C0.89092 47.562 0.847499 47.49 0.805366 47.4202C0.0277716 46.132 -0.311436 45.5701 0.356839 43.8748C0.595412 43.5445 0.784868 43.2307 0.962864 42.9359C1.56448 41.9395 2.03517 41.1599 3.82901 40.692C4.54409 40.5054 5.4442 40.4325 6.33906 40.3599L6.33919 40.3599C7.08622 40.2994 7.82958 40.2391 8.45857 40.1133C10.1947 39.7661 21.4792 33.4583 21.4792 33.4583C21.4792 33.4583 23.2153 29.4074 23.794 27.9607C23.715 27.363 14.2455 29.1181 12.5094 30.5648C11.4641 31.4359 8.9202 29.2406 8.45857 27.9607C8.41572 27.8419 8.36967 27.7191 8.32271 27.5939C7.90752 26.4873 7.42177 25.1926 8.45857 24.7779C9.97758 24.1703 13.3775 19.5696 13.3775 19.5696C14.8242 17.8335 18.0203 14.5604 19.4538 15.2294C19.7475 15.3664 19.2114 16.3112 18.4596 17.6363C17.3227 19.6401 15.6923 22.5136 15.6923 24.7779C20.0325 24.7779 25.5301 23.0418 25.5301 23.0418L28.7129 15.8081C29.3383 14.3489 30.4973 10.802 31.253 8.48944C31.5462 7.59208 31.7787 6.88056 31.8958 6.54895ZM84.557 30.2755C89.1866 28.8287 94.6842 28.25 101.05 28.25C101.77 28.25 102.29 28.8468 102.612 29.2157C102.679 29.2917 102.736 29.358 102.786 29.4074C103.075 30.5648 102.497 30.8542 101.918 31.1435C100.685 31.4174 99.3935 31.8299 98.188 32.2149L98.1879 32.2149C96.8469 32.6431 95.6124 33.0373 94.6842 33.1689C92.2127 33.5194 90.0546 33.7476 88.3185 33.7476C88.2558 33.6849 88.0986 33.5886 87.8788 33.454C87.0857 32.9682 85.4781 31.9836 84.557 30.2755ZM85.7144 37.7985C82.0713 38.8394 79.3643 38.4761 77.1724 38.1819L77.1724 38.1819L77.1719 38.1819L77.1711 38.1818C76.9263 38.1489 76.6879 38.1169 76.4553 38.0878C75.8819 39.5622 75.6214 40.7944 76.4553 42.1387C76.9874 42.9967 77.9905 42.8481 79.021 42.6954C79.7471 42.5878 80.4868 42.4782 81.0848 42.7174C79.7425 44.0598 77.0021 45.6563 74.5483 47.0859C73.2997 47.8133 72.1253 48.4976 71.247 49.0831C70.6133 50.8965 70.7154 51.5664 71.8257 53.1339C73.0877 53.7126 75.5872 54.002 79.0594 53.1339C79.4326 53.0406 80.0292 52.9017 80.7608 52.7313L80.7609 52.7313C82.8658 52.2411 86.0877 51.4907 88.3185 50.8191C89.8983 50.3436 91.925 49.4294 93.6529 48.65C95.5956 47.7736 97.1606 47.0677 97.2883 47.347C97.3837 47.5556 97.4756 47.7463 97.5606 47.9223C98.0643 48.9666 98.3205 49.4976 97.5777 50.2404C96.8919 50.9263 95.6533 51.5081 94.5677 52.0181C93.1571 52.6807 92.0047 53.2221 92.6587 53.7126C94.3948 54.2913 96.8124 54.5807 97.867 54.5807C98.2509 54.5807 98.6761 54.6029 99.1246 54.6263H99.1247H99.1248H99.1249H99.125C100.705 54.7089 102.573 54.8066 103.943 54.002C105.254 53.2321 105.39 50.1909 105.101 48.215C104.928 47.0362 103.624 44.4089 101.918 43.2961C99.5517 41.7529 95.8416 40.9813 94.6842 41.8494C94.5523 42.5089 95.0356 43.075 95.5255 43.6488C95.974 44.1741 96.4279 44.7058 96.4203 45.3215C94.1055 46.1896 85.7144 48.215 80.5061 48.215C83.1103 45.9002 89.3296 42.1109 93.8161 40.4026C94.5212 40.1342 95.1525 39.8863 95.7367 39.657L95.7386 39.6563L95.7388 39.6562C98.3385 38.6356 100.004 37.9816 103.075 37.5092C103.654 36.3518 103.398 35.0044 102.497 34.037C101.09 32.5287 98.1563 33.7476 96.4203 34.6157C92.9481 36.3518 88.8972 37.2198 85.7144 37.7985ZM145.031 14.3613C142.58 14.5145 141.022 14.1813 139.797 13.9195C138.708 13.6866 137.882 13.5102 136.929 13.7826C137.797 15.2294 139.233 16.6888 140.69 17.8335C142.407 19.1814 144.741 19.6485 146.767 19.2803C148.46 18.9723 149.744 18.5825 151.011 18.1979C152.125 17.8597 153.225 17.5256 154.579 17.2548C155.001 17.1343 155.498 16.976 156.032 16.8062L156.033 16.8059L156.033 16.8058L156.034 16.8055L156.034 16.8054C158.061 16.1605 160.608 15.3501 161.523 15.8081C161.523 16.9655 160.945 20.727 159.787 22.7524C159.271 22.9247 158.497 23.2509 157.612 23.6241C155.525 24.5043 152.819 25.6459 151.396 25.6459C150.619 24.661 150.502 23.2311 150.407 22.0615V22.0612C150.365 21.5458 150.327 21.081 150.239 20.727C148.503 19.8589 145.899 24.1992 145.32 27.9607C145.324 28.5408 145.307 29.1992 145.29 29.8968V29.8971V29.8973C145.238 31.9476 145.178 34.3354 145.609 36.0624C146.767 38.0879 148.845 37.9517 150.818 37.5092C153.132 35.7731 152.554 31.1435 152.264 29.6968C152.843 28.25 157.473 25.9352 158.63 25.6459C158.382 26.6395 157.465 28.8388 156.398 31.4007L156.398 31.4008L156.397 31.4013C154.978 34.8078 153.291 38.855 152.554 41.56C151.693 44.7153 151.117 48.0839 150.649 50.82C150.173 53.6039 149.809 55.7331 149.371 56.3167C151.975 55.7381 154.29 52.266 156.605 48.7939L156.605 48.7937C157.423 47.5656 159.787 43.8748 160.655 40.692C160.879 40.6361 161.022 40.5969 161.117 40.5708L161.118 40.5707C161.255 40.5329 161.292 40.523 161.323 40.5307C161.326 40.5315 161.329 40.5324 161.332 40.5334L161.338 40.5353L161.342 40.537C161.347 40.5393 161.353 40.542 161.36 40.5451C161.422 40.5739 161.555 40.6349 162.102 40.692C162.451 41.0407 162.239 41.296 162.105 41.4579C161.905 41.6991 161.877 41.7331 164.128 41.56C165.864 40.9813 170.204 39.2452 173.676 35.7731C175.562 33.8868 178.595 30.5648 179.463 26.8033C179.463 24.7779 178.232 22.8078 176.57 21.8844C175.197 21.1216 173.582 21.1632 172.023 21.2033C170.626 21.2393 169.273 21.2741 168.178 20.727C168.281 20.3184 168.429 20.0068 168.562 19.7277C168.805 19.2161 168.997 18.8135 168.757 18.1229C168.651 17.9637 168.535 17.8046 168.417 17.642C167.889 16.9171 167.31 16.1216 167.31 14.94C169.047 14.3613 174.21 14.1105 176.57 14.3613C177.469 14.457 176.95 14.6341 176.237 14.8776C175.711 15.0573 175.079 15.273 174.833 15.5187C175.812 15.6166 176.857 15.6483 177.935 15.6809C180.043 15.7448 182.276 15.8124 184.382 16.3868C185.829 17.2548 188.085 18.4818 189.88 18.1229C190.094 18.0799 190.326 18.0497 190.561 18.0191C191.912 17.8429 193.387 17.6507 192.484 14.94C191.776 12.8176 190.516 11.7044 188.433 10.8892C186.539 10.148 185.539 10.3105 184.671 10.8892C182.543 11.0665 179.412 11.0918 176.989 11.1114C175.459 11.1238 174.212 11.1339 173.676 11.1785C172.435 11.2819 170.689 11.4087 168.774 11.5477L168.773 11.5477C165.4 11.7926 161.503 12.0755 158.919 12.3359C156.92 12.5374 154.163 12.9927 151.561 13.4222C148.891 13.863 146.385 14.2767 145.031 14.3613ZM208.469 13.0716C208.906 13.1088 209.15 13.1295 210.423 13.4933C212.309 14.0322 214.447 13.3165 218.237 12.0471C218.517 11.9534 218.805 11.8567 219.104 11.7572C219.551 11.8101 219.992 11.8363 220.419 11.8616C222.025 11.957 223.441 12.0411 224.312 13.4933C225.184 14.9467 223.155 16.9655 221.997 16.9655C219.146 16.9655 216.902 18.1794 214.695 19.3731C212.871 20.36 211.072 21.3331 208.977 21.595C208.977 20.8766 209.46 20.5186 209.989 20.1258C210.527 19.7275 211.112 19.2936 211.291 18.4122C211.291 17.4175 210.105 16.4227 209 15.4965C207.856 14.5369 206.799 13.6508 207.24 12.9146C207.885 13.022 208.211 13.0497 208.469 13.0716ZM212.159 24.1992C212.159 22.5583 208.284 22.6906 206.806 22.741C206.619 22.7474 206.47 22.7524 206.372 22.7524C205.794 24.7778 206.662 27.3819 207.24 29.118L207.24 29.1181C207.442 30.065 207.768 30.7687 208.063 31.4073C208.493 32.3357 208.859 33.1263 208.687 34.3263C206.662 35.4837 204.636 36.3518 202.032 36.6411C202.032 36.1081 202.197 35.5168 202.355 34.9477C202.54 34.2811 202.717 33.645 202.611 33.1689C202.325 31.8826 200.585 30.2755 198.849 29.6968C198.849 32.8796 198.271 35.1944 196.535 36.0624C195.451 37.587 193.93 38.9559 191.905 39.8239C191.997 42.3107 192.484 45.0322 195.377 45.0322C196.511 44.6355 198.413 43.7278 200.417 42.7717C202.997 41.54 205.746 40.2279 207.24 39.8239C210.114 38.5594 212.212 38.1627 213.751 37.8716C216.085 37.43 217.134 37.2316 217.657 34.6157C217.077 32.6822 215.799 31.1749 214.963 30.1891L214.963 30.189C214.548 29.6996 214.242 29.3387 214.185 29.1181C213.723 28.5644 213.47 28.3785 213.366 28.3023C213.326 28.273 213.308 28.2599 213.309 28.2484C213.31 28.2392 213.323 28.2309 213.346 28.216C213.456 28.1466 213.793 27.9333 214.185 26.8033C215.247 26.0951 215.736 26.2146 216.108 26.3053C216.344 26.3628 216.532 26.4088 216.789 26.2246C217.528 26.7172 217.864 27.5778 218.178 28.3811C218.601 29.4653 218.984 30.4453 220.261 30.2755C220.971 30.181 221.359 29.9445 221.758 29.7015C222.126 29.4767 222.504 29.2463 223.155 29.1181C225.683 28.6196 227.495 31.7222 228.363 33.7476C227.486 34.3615 226.672 34.9488 225.892 35.5125L225.891 35.5127C221.52 38.6689 218.171 41.0867 210.423 43.2961C208.752 43.2961 207.958 43.1366 207.204 42.985C206.523 42.8479 205.873 42.7174 204.636 42.7174C206.662 45.0322 208.977 47.0576 216.789 45.6109C221.488 44.3147 223.737 42.8371 225.721 41.5336C227.28 40.5093 228.675 39.5925 230.967 38.9559C231.269 39.7411 231.508 40.5768 231.752 41.4313C232.678 44.6702 233.682 48.1799 238.49 50.2404H251.511C250.222 48.3993 247.996 46.7924 245.578 45.0472C244.196 44.0497 242.751 43.0069 241.383 41.8494C239.409 40.1786 237.911 37.5092 236.465 34.6157C237.293 32.8404 238.654 31.4039 240.013 29.9698C241.976 27.8977 243.935 25.8303 244.277 22.7524C244.101 21.0928 243.065 20.5784 241.999 20.0487C241.22 19.6619 240.425 19.267 239.937 18.4122C241.166 17.4561 243.298 16.758 245.571 16.0133C248.114 15.1805 250.835 14.2895 252.668 12.9146C252.668 10.5776 250.514 10.4686 248.241 10.3535C247.981 10.3404 247.72 10.3271 247.46 10.3105C246.189 10.2291 244.832 11.0214 243.578 11.7529C242.548 12.3543 241.588 12.9146 240.805 12.9146C240.985 12.2825 241.617 11.5096 242.356 10.6045C243.986 8.60939 246.14 5.97228 245.145 2.78743C242.541 -0.684739 236.465 1.05135 234.439 1.91939C234.592 2.89587 235.47 3.13604 236.404 3.39185C237.192 3.6076 238.021 3.83446 238.49 4.52352C236.374 9.09762 232.894 12.1942 230.51 14.3145L230.51 14.3146L230.51 14.3151C229.576 15.1453 228.812 15.8258 228.363 16.3868C227.205 17.8335 227.12 20.0505 228.363 21.0163C230.967 21.0163 233.571 21.0163 234.439 19.8589C235.031 20.0958 235.284 20.478 235.515 20.8271C235.848 21.331 236.136 21.766 237.333 21.595C238.49 23.6205 234.635 29.3889 232.414 29.6968C231.878 28.8936 231.405 28.7097 231.05 28.5721C230.639 28.4123 230.388 28.3149 230.388 27.382C229.655 27.3442 228.922 27.3545 228.193 27.3648C226.475 27.389 224.78 27.4129 223.155 26.8033C223.144 26.3934 223.298 26.0892 223.439 25.8105C223.681 25.3328 223.886 24.9302 223.155 24.1992C223.954 23.7996 224.201 22.4346 224.468 20.9611C224.588 20.3004 224.711 19.6179 224.891 18.9909C223.485 18.9909 222.585 20.0873 221.645 21.2328C220.843 22.2091 220.013 23.2211 218.814 23.6205C215.644 22.9531 214.783 23.5363 214.123 23.9835C213.638 24.3118 213.262 24.5667 212.159 24.1992ZM287.08 12.599C288.109 13.2227 289.23 13.9013 290.862 13.4933C292.309 12.6253 296.359 7.12765 294.045 2.78743C296.649 2.78744 299.832 2.78743 300.411 3.94482C300.7 6.8383 300.411 7.95009 298.674 11.1785C299.808 11.4304 300.557 11.3534 301.257 11.2815C302.166 11.1882 302.99 11.1035 304.461 11.7572C305.287 12.6508 302.146 15.5187 300.411 16.3868C299.531 16.8266 298.479 16.8968 297.366 16.971C296.282 17.0433 295.141 17.1194 294.045 17.5442C293.767 17.8216 293.342 18.1582 292.854 18.5445C291.815 19.3667 290.492 20.4139 289.705 21.595C289.652 22.5158 290.042 22.4957 290.657 22.4638C291.113 22.4403 291.693 22.4102 292.309 22.7524C293.985 23.6835 293.503 25.3336 292.947 27.24C292.639 28.2959 292.309 29.4303 292.309 30.5648C294.326 30.1324 295.411 29.1975 296.456 28.2965C297.509 27.3886 298.523 26.515 300.411 26.2246C300.352 26.5322 299.996 26.8599 299.613 27.2124C299 27.777 298.318 28.4056 298.674 29.1181C303.304 28.5394 307.474 28.0026 306.487 26.2246C307.054 25.0893 305.561 25.0374 304.35 24.9954C303.71 24.9732 303.149 24.9537 303.015 24.7779C303.424 24.7779 303.869 24.6782 304.401 24.559C305.376 24.3409 306.642 24.0576 308.512 24.1992C314.588 27.0926 311.695 29.6968 308.512 30.5648C303.883 30.5648 299.832 30.912 294.913 32.8796C291.832 34.1119 290.555 36.7384 289.598 38.707C288.758 40.4362 288.164 41.6579 286.811 40.9813C284.432 40.9813 284.905 39.4873 285.439 37.802C285.685 37.0275 285.943 36.2126 285.943 35.4837C284.496 34.6157 279.867 36.9305 278.42 38.3772C277.708 39.7899 277.836 42.1153 278.42 43.5855C280.638 45.4001 282.647 45.6843 284.688 45.9731C285.576 46.0987 286.47 46.2252 287.39 46.4789C290.283 46.4789 291.73 46.4789 293.177 48.7937C293.177 52.5552 285.075 51.6872 278.42 49.6618C273.599 46.4447 273.501 43.8748 274.948 38.9559C277.415 35.7653 282.09 34.0493 285.232 32.8958C285.82 32.6798 286.355 32.4835 286.811 32.3009C286.997 31.4647 287.362 30.5689 287.723 29.6804C288.488 27.8019 289.24 25.9565 288.258 24.7779C286.687 24.2067 285.469 24.8335 284.22 25.4759C282.939 26.1352 281.625 26.8108 279.867 26.2246C279.548 23.1925 281.517 21.9207 283.541 20.6131C285.188 19.5499 286.871 18.463 287.39 16.3868C285.364 16.9655 283.918 14.3613 283.339 12.3359C284.872 11.2624 285.918 11.8958 287.08 12.599ZM427.32 3.87387C427.752 4.17644 428.13 4.44181 428.592 4.52353C429.344 4.65677 430.304 4.63667 431.321 4.61536C433.765 4.56418 436.54 4.50607 437.561 6.54896C438.574 8.5744 437.272 10.3105 436.693 10.5998C433.8 11.1785 429.749 10.8892 426.277 8.5744C425.698 7.9957 423.672 5.97027 424.83 2.78744C426.01 2.95607 426.717 3.45125 427.32 3.87387ZM412.388 21.595C411.032 21.595 410.57 21.1979 410.187 20.8688C409.916 20.6362 409.685 20.4377 409.205 20.4377C407.897 21.9148 409.95 24.6404 411.231 25.0672C412.93 25.6336 413.797 25.3685 423.6 22.3726L424.251 22.1737C423.094 25.0672 404.576 41.56 400.235 43.0068C399.946 43.5855 399.367 45.6109 400.235 47.0576C401.436 47.8794 404.065 45.8217 405.406 44.7723L405.444 44.7429C407.421 43.1957 409.091 41.8017 410.523 40.6065C413.913 37.7781 415.969 36.0624 417.596 36.0624C417.732 37.687 416.939 39.2595 416.135 40.8531C415.221 42.6654 414.294 44.505 414.703 46.4789C415.175 48.7574 417.335 49.9567 418.754 50.2405C423.094 51.1085 427.434 51.34 432.932 50.2405C433.8 49.3724 434.661 46.8618 433.8 46.4789C432.764 46.0187 430.539 46.1075 428.234 46.1996C424.742 46.339 421.068 46.4856 421.068 44.7429C420.852 41.9257 422.258 39.2708 423.707 36.5352L423.707 36.5346L423.708 36.5339L423.708 36.5333C424.193 35.6169 424.684 34.6914 425.119 33.7476C425.119 32.6759 424.363 32.5312 422.194 32.1167C422.021 32.0836 421.839 32.0487 421.647 32.0116C423.672 29.4074 429.749 23.6205 431.196 22.7524C432.642 21.595 432.932 21.0163 432.932 19.2803C432.932 17.9863 432.064 17.2548 431.196 16.6761C424.495 17.1916 421.365 18.5233 418.595 19.7018C416.7 20.508 414.974 21.2425 412.388 21.595ZM485.907 7.86856C486.864 8.35403 487.927 8.89334 489.065 8.86374C491.056 8.81198 492.931 8.17001 494.764 7.54228C497.22 6.70153 499.601 5.88632 502.086 6.54896C503.895 7.26152 504.387 7.59069 504.979 9.44244C502.297 14.0404 495.429 19.1457 490.59 22.7427C488.121 24.5783 486.18 26.0212 485.593 26.8033C487.041 26.7228 488.378 26.5752 489.646 26.4352C492.938 26.0716 495.77 25.7589 498.903 26.8033C501.428 27.6448 504.172 30.7057 504.111 33.7476C504.065 36.0767 502.931 37.2961 501.517 38.816L501.517 38.8163L501.516 38.8166C501.142 39.219 500.748 39.6425 500.35 40.1133C494.562 44.7429 489.065 47.0576 483.567 48.7937C480.385 49.3724 476.254 49.8825 474.019 48.7937C472.572 47.347 471.704 44.7429 471.704 42.7174C472.11 41.0642 472.901 40.6511 474.062 40.046C474.482 39.8269 474.95 39.5827 475.466 39.2453C477.411 38.3805 478.71 38.389 480.329 38.3995C480.877 38.4031 481.462 38.4069 482.121 38.3772C484.153 38.2856 486.184 39.2221 487.74 39.9393C488.511 40.2946 489.164 40.5961 489.644 40.692C493.405 39.2453 497.456 36.0624 498.035 32.8796C498.25 30.4082 497.167 29.1181 495.431 28.5394C493.336 27.841 490.206 28.9504 487.484 29.9153C486.822 30.1496 486.185 30.3755 485.593 30.5648C478.815 32.7308 472.862 35.1944 470.836 36.9305C470.257 37.4265 468.847 37.3825 467.943 36.9305C467.364 36.0624 467.412 34.8722 467.943 32.8796C472.862 30.5648 493.695 15.8081 497.746 10.3105C495.827 10.3105 494.36 10.9878 492.923 11.6516C491.542 12.2894 490.188 12.9146 488.487 12.9146C487.289 12.6902 486.65 12.1085 485.835 11.3661C485.668 11.2134 485.493 11.0538 485.304 10.8892C485.099 10.7108 484.908 10.5494 484.731 10.3996C483.554 9.40425 482.989 8.9261 482.989 7.41701C483.776 6.78759 484.766 7.28981 485.907 7.86856ZM365.446 16.4928L366.604 13.5993H369.208L365.446 16.4928ZM30.0922 28.6454C30.9602 27.7774 35.0111 24.8839 35.0111 24.8839C33.5643 24.8839 32.407 24.8839 31.2496 25.4626C30.6709 26.3306 30.3815 27.488 30.0922 28.6454L30.0922 28.6454ZM6.65499 44.5595C6.15844 42.8216 12.4789 40.2316 17.7563 38.069C18.6294 37.7112 19.474 37.3651 20.2543 37.0365C19.7131 38.6601 19.5094 39.9463 19.2924 41.3158C19.1613 42.1429 19.0255 43.0004 18.8076 43.9809C18.1173 43.9809 16.99 44.0817 15.632 44.2032L15.6319 44.2032H15.6319H15.6318H15.6317C13.0053 44.4381 9.51586 44.7503 6.65499 44.5595ZM164.877 29.7859C164.353 30.9181 163.773 32.1714 163.192 33.5643C166.086 33.5643 170.426 28.3561 170.715 25.4626C169.226 24.9298 168.154 24.9298 166.664 25.4626C166.318 26.6755 165.66 28.0958 164.877 29.7859ZM478.292 43.4022C478.292 42.5341 479.16 41.6661 480.317 41.9554C480.539 42.0109 480.789 42.0557 481.045 42.1015C482.055 42.2824 483.152 42.4789 482.921 43.4022C482.663 44.4363 480.607 44.5595 480.317 44.5595C479.739 44.5595 478.292 44.2702 478.292 43.4022Z" fill="white"/>
</svg>
